<?xml version="1.0" encoding="UTF-8"?>
<svg version="1.1" xmlns="http://www.w3.org/2000/svg" width="100" height="100">
<path d="M0 0 C0.98162109 -0.00386719 1.96324219 -0.00773437 2.97460938 -0.01171875 C9.27079235 -0.00338495 15.43680182 0.37082754 21.6875 1.125 C22.1825 3.105 22.1825 3.105 22.6875 5.125 C19.37123298 6.17592969 16.75377866 6.06934051 13.3125 5.6875 C3.67527433 4.78032839 -5.72974021 4.80684745 -15.3125 6.125 C-15.35737549 6.68968994 -15.40225098 7.25437988 -15.44848633 7.83618164 C-16.87218034 25.62083249 -18.56858932 43.3688185 -20.3125 61.125 C-1.1725 61.125 17.9675 61.125 37.6875 61.125 C38.0175 54.855 38.3475 48.585 38.6875 42.125 C39.09607817 38.87271777 39.51021128 35.76033935 40.125 32.5625 C40.32186401 31.46156006 40.32186401 31.46156006 40.52270508 30.33837891 C40.8973968 28.26439722 41.28835363 26.19439632 41.6875 24.125 C41.89890625 23.02027344 42.1103125 21.91554688 42.328125 20.77734375 C42.7653802 18.55671199 43.22304311 16.3401021 43.6875 14.125 C45.0075 14.455 46.3275 14.785 47.6875 15.125 C45.89674288 34.71680423 45.89674288 34.71680423 44.12109375 43.40234375 C43.365385 48.14765003 43.2314806 52.94666463 43.03125 57.7421875 C42.7037132 60.96544741 41.94747593 63.17814013 40.6875 66.125 C32.36021053 66.14812684 24.03293437 66.16591683 15.70562077 66.17681217 C11.83929882 66.18204026 7.97299879 66.18913654 4.10668945 66.20043945 C0.37846599 66.211271 -3.34973634 66.2172774 -7.07797432 66.21987724 C-8.50339656 66.22173101 -9.92881759 66.22535071 -11.35423088 66.23073006 C-13.34413408 66.23794393 -15.33405834 66.23840808 -17.32397461 66.23852539 C-18.45870712 66.240746 -19.59343964 66.24296661 -20.76255798 66.24525452 C-23.3125 66.125 -23.3125 66.125 -24.3125 65.125 C-25.4580662 52.66783547 -24.17101021 40.04818072 -22.45239258 27.71801758 C-21.44159275 20.45972256 -20.87121292 13.29823286 -20.62109375 5.9765625 C-20.3125 3.125 -20.3125 3.125 -18.3125 1.125 C-12.25556491 -0.1561188 -6.16831335 -0.02401679 0 0 Z " fill="#000000" transform="translate(36.3125,21.875)"/>
<path d="M0 0 C2.6209402 3.9314103 2.81751502 5.31786854 2 10 C-4.00000349 18.77635473 -13.14430821 25.91413649 -21 33 C-21.75539062 33.68191406 -22.51078125 34.36382812 -23.2890625 35.06640625 C-25.17219127 36.73642374 -27.08394136 38.36794215 -29 40 C-29.83789062 40.75152344 -30.67578125 41.50304688 -31.5390625 42.27734375 C-37.46870516 47.43028674 -43.16640489 51.43857395 -51 53 C-51.99 52.67 -52.98 52.34 -54 52 C-54.49275533 46.08693606 -53.34804655 41.96738304 -50 37 C-46.27884073 32.77531997 -42.28316738 28.86158141 -38.25 24.9375 C-37.1788165 23.87783286 -36.10849726 22.81729134 -35.0390625 21.75585938 C-28.23607925 15.0317359 -21.35412477 8.37100035 -13.6875 2.625 C-13.05199219 2.14289062 -12.41648438 1.66078125 -11.76171875 1.1640625 C-7.71576143 -1.5093195 -4.57849309 -0.99894395 0 0 Z M-13 8 C-12.21869929 10.49552484 -12.21869929 10.49552484 -11 13 C-10.01 13.33 -9.02 13.66 -8 14 C-8.78130071 11.50447516 -8.78130071 11.50447516 -10 9 C-10.99 8.67 -11.98 8.34 -13 8 Z M-17 12 C-21.92454242 16.19109993 -26.58528555 20.54046706 -31.1171875 25.15234375 C-32.76845095 26.77277448 -34.44663357 28.24208821 -36.25 29.6875 C-38.91308373 31.92691132 -40.93065445 34.21434252 -43 37 C-42.34 38.32 -41.68 39.64 -41 41 C-36.58180703 41 -36.33770803 40.84011444 -33.390625 37.96484375 C-32.71773437 37.31966797 -32.04484375 36.67449219 -31.3515625 36.00976562 C-30.65804687 35.32591797 -29.96453125 34.64207031 -29.25 33.9375 C-27.8815091 32.61193704 -26.51171858 31.28771446 -25.140625 29.96484375 C-24.46580078 29.31112793 -23.79097656 28.65741211 -23.09570312 27.98388672 C-19.82161975 24.88449232 -16.42160167 21.93468143 -13 19 C-13.69378511 15.73988358 -14.45893991 14.20961747 -17 12 Z M-47 42 C-47.66 43.32 -48.32 44.64 -49 46 C-47.02 45.67 -45.04 45.34 -43 45 C-43.97850195 43.97895449 -44.97980427 42.9793879 -46 42 C-46.33 42 -46.66 42 -47 42 Z " fill="#000000" transform="translate(92,11)"/>
</svg>
