<?xml version="1.0" encoding="UTF-8"?>
<svg version="1.1" xmlns="http://www.w3.org/2000/svg" width="32" height="32">
<path d="M0 0 C4.12974965 2.06487482 6.29527061 3.7458555 8 8 C8.7121481 13.01815989 8.52912753 16.94174495 6.25 21.5 C3.55891188 24.49009791 1.62679122 25.76913524 -2.3671875 26.3359375 C-8.08522757 26.42500354 -11.56237048 25.99386657 -16 22 C-18.73957509 17.559999 -18.65531007 13.06666568 -18 8 C-13.98902931 -0.02194138 -8.43057162 -1.09038939 0 0 Z M-14 7 C-15.60086627 10.20173254 -15.49917089 13.52577059 -15 17 C-13.20636089 19.8100346 -11.98119065 21.50940468 -9 23 C-3.18654053 23.53365513 -3.18654053 23.53365513 1.9375 21.125 C5.09695358 17.8698054 5.33421243 15.57586762 5.29296875 11.0390625 C4.83745033 7.86865433 3.24684343 6.1807598 1 4 C-4.71872108 1.14063946 -9.77770087 2.64975241 -14 7 Z " fill="#000000" transform="translate(21,3)"/>
<path d="M0 0 C3.36591866 1.44253657 5.51047079 3.33264727 8 6 C7.67 6.99 7.34 7.98 7 9 C5.35 7.68 3.7 6.36 2 5 C-0.49361571 6.20381448 -2.68143083 7.45428722 -5 9 C-5 5 -5 5 -2.5 2.25 C-1.675 1.5075 -0.85 0.765 0 0 Z " fill="#000000" transform="translate(15,11)"/>
</svg>
